<?xml version="1.0" encoding="UTF-8"?>
<svg version="1.1" xmlns="http://www.w3.org/2000/svg" width="800" height="519">
<path d="M0 0 C264 0 528 0 800 0 C800 171.27 800 342.54 800 519 C536 519 272 519 0 519 C0 347.73 0 176.46 0 0 Z " fill="#C6D4FE" transform="translate(0,0)"/>
<path d="M0 0 C3.32636255 1.28245303 6.13964148 2.88121591 9 5 C9 5.66 9 6.32 9 7 C9.58265625 7.25136719 10.1653125 7.50273438 10.765625 7.76171875 C22.57360696 14.30565281 29.58546037 30.93857985 34 43 C34.43183594 44.16273438 34.86367188 45.32546875 35.30859375 46.5234375 C41.080906 62.86404844 42.90043887 79.87946293 45 97 C45.87140625 96.55269531 46.7428125 96.10539062 47.640625 95.64453125 C61.43450437 88.61388833 74.92740611 83.56555984 90 80 C91.00417969 79.74992187 92.00835937 79.49984375 93.04296875 79.2421875 C110.8392091 75.5094458 132.82261404 75.97386354 148.71484375 85.3828125 C152.78877076 88.2658993 155.39624004 91.18872012 157 96 C157.50296479 102.13617038 157.12276926 105.13724652 153 110 C142.33393816 120.79806755 128.0489976 122.05922624 113.5625 122.25 C91.61565145 122.24090851 70.44321161 115.91363752 51 106 C49.00048874 104.99902311 47.00055743 103.99888436 45 103 C44.85751831 104.267229 44.85751831 104.267229 44.7121582 105.56005859 C41.40916074 134.37160561 36.14020387 159.93283404 19 184 C18.49984375 184.70511719 17.9996875 185.41023437 17.484375 186.13671875 C12.11546089 193.00214053 4.40625959 198.6959777 -4 201 C-9.06028905 201.443885 -11.93018714 201.07985838 -16 198 C-19.21113591 195.24759779 -20.69780928 193.00848273 -22 189 C-23.61105925 167.42818967 -13.85992251 149.47836449 -0.19921875 133.43359375 C3.07114239 129.81470389 6.48856717 126.38296577 10 123 C11.19689453 121.78376953 11.19689453 121.78376953 12.41796875 120.54296875 C32.26113671 101 32.26113671 101 40 101 C40 100.34 40 99.68 40 99 C38.68 98.67 37.36 98.34 36 98 C36 97.34 36 96.68 36 96 C35.27425781 95.731875 34.54851562 95.46375 33.80078125 95.1875 C31.03135976 94.01329619 28.69080566 92.6605676 26.1875 91 C25.39730469 90.484375 24.60710937 89.96875 23.79296875 89.4375 C23.20128906 88.963125 22.60960937 88.48875 22 88 C22 87.34 22 86.68 22 86 C21.41734375 85.73445313 20.8346875 85.46890625 20.234375 85.1953125 C16.31472898 83.09843893 13.25349663 79.99632686 10 77 C9.071875 76.17048828 9.071875 76.17048828 8.125 75.32421875 C-6.65204299 61.43995544 -20.79416308 41.21776983 -22.23828125 20.59765625 C-22.48990579 8.61238223 -22.48990579 8.61238223 -18 3 C-13.03050601 -1.74412011 -6.4210395 -0.78596331 0 0 Z M-17 5 C-21.00502724 12.39273824 -21.08756063 20.233943 -18.93359375 28.1796875 C-14.55440326 42.90081958 -7.12245106 54.45458458 3 66 C3.47469727 66.54172852 3.94939453 67.08345703 4.43847656 67.64160156 C5.92850135 69.33248517 7.42983073 71.01233945 8.9375 72.6875 C9.41034424 73.21738525 9.88318848 73.74727051 10.37036133 74.29321289 C11.53811916 75.56869199 12.76458954 76.78993129 14 78 C14.66 78 15.32 78 16 78 C16 78.66 16 79.32 16 80 C17.99284138 81.3440093 19.99419671 82.67541292 22 84 C22.78375 84.804375 23.5675 85.60875 24.375 86.4375 C27.59629042 89.58209302 32.25975714 94 37 94 C37 94.66 37 95.32 37 96 C38.32 96.33 39.64 96.66 41 97 C42.84131585 69.54393478 33.82734997 36.49768673 16 15 C15.34 15 14.68 15 14 15 C13.77957031 14.42507812 13.55914062 13.85015625 13.33203125 13.2578125 C11.58550426 10.29742364 9.48057554 8.86303482 6.6875 6.875 C5.74261719 6.19179687 4.79773438 5.50859375 3.82421875 4.8046875 C-3.33245336 0.23154432 -10.31849743 -1.22594558 -17 5 Z M88 83 C87.35450195 83.1561377 86.70900391 83.31227539 86.04394531 83.47314453 C64.4603756 88.46796627 64.4603756 88.46796627 46 100 C69.77482889 116.16688365 103.53685771 123.01242127 131.8203125 118.3125 C141.0951582 116.40921343 147.25285397 113.11272125 153.5625 106.1875 C155.53592253 101.81165003 155.2807046 98.57152172 154 94 C151.09107273 88.43509566 145.51829539 86.42328842 140 84 C139.25621094 83.66355469 138.51242187 83.32710938 137.74609375 82.98046875 C130.35919772 80.34304215 123.24631256 79.64191521 115.4375 79.6875 C114.48020996 79.69023926 113.52291992 79.69297852 112.53662109 79.69580078 C104.07809714 79.81871569 96.21542193 81.00561027 88 83 Z M8 128 C7.11066772 128.8499353 7.11066772 128.8499353 6.20336914 129.71704102 C2.13418653 133.65686773 -1.2653713 137.74903376 -4.4375 142.4375 C-5.13637329 143.46423828 -5.13637329 143.46423828 -5.84936523 144.51171875 C-9.06995773 149.35282196 -11.93923543 154.31192972 -14.5625 159.5 C-14.88468506 160.13349365 -15.20687012 160.7669873 -15.53881836 161.41967773 C-20.05267944 170.72943991 -22.07200643 181.50618187 -18.8125 191.5625 C-16.81447529 195.35185721 -16.01853661 196.60224813 -12 198 C-5.16722361 198.89904953 0.35590935 197.73850152 5.96484375 193.5234375 C14.31734601 186.5015642 20.48800804 178.37702728 26 169 C26.44214844 168.25492187 26.88429688 167.50984375 27.33984375 166.7421875 C37.82968296 147.50522997 41.25276385 124.56918218 41 103 C30.05922725 103 15.32255891 120.76762297 8 128 Z " fill="#25272B" transform="translate(330,90)"/>
<path d="M0 0 C3.3 0 6.6 0 10 0 C11 1 11 1 11.12025452 3.36012268 C11.11803391 4.40603073 11.11581329 5.45193878 11.11352539 6.52954102 C11.11344986 7.71068985 11.11337433 8.89183868 11.11329651 10.10877991 C11.10813522 11.3941716 11.10297394 12.67956329 11.09765625 14.00390625 C11.0962413 15.31205795 11.09482635 16.62020966 11.09336853 17.96800232 C11.0895441 21.45162859 11.07971446 24.93521339 11.06866455 28.41882324 C11.05844882 31.97126708 11.05387056 35.52371759 11.04882812 39.07617188 C11.03809212 46.05079832 11.0210166 53.02539717 11 60 C10.09636719 59.98839844 9.19273437 59.97679687 8.26171875 59.96484375 C6.49248047 59.95130859 6.49248047 59.95130859 4.6875 59.9375 C3.51574219 59.92589844 2.34398437 59.91429687 1.13671875 59.90234375 C-2.03059195 59.85100102 -2.03059195 59.85100102 -5 61 C-10.61599916 61.36826224 -14.17665989 61.21556007 -19 58 C-24.1958611 52.86171077 -26.30915176 48.53404125 -26.5 41.25 C-26.40902462 35.42151066 -25.73243179 31.81654941 -21.765625 27.48828125 C-16.95638724 23.43447685 -12.27317746 22.66639074 -6.2109375 22.69921875 C-4 23 -4 23 1 25 C0.505 12.625 0.505 12.625 0 0 Z " fill="#131314" transform="translate(308,316)"/>
<path d="M0 0 C9 0 9 0 13 1 C13.33 0.67 13.66 0.34 14 0 C20.04696783 -0.64826896 25.92104801 -0.64335878 31.2734375 2.484375 C35.48608648 6.18235646 37.46660435 11.13627743 38.4765625 16.55859375 C38.85852249 23.00165575 37.04831775 27.99623986 33 33 C28.98234796 36.8127607 25.27887453 38.2909319 19.75 38.4375 C16.25758263 38.34296004 14.06898706 37.61481026 11 36 C11.02356567 36.98395752 11.02356567 36.98395752 11.04760742 37.98779297 C11.10983652 40.95010816 11.14895168 43.9122861 11.1875 46.875 C11.22520508 48.42380859 11.22520508 48.42380859 11.26367188 50.00390625 C11.27817383 51.48310547 11.27817383 51.48310547 11.29296875 52.9921875 C11.31653442 54.35899658 11.31653442 54.35899658 11.34057617 55.75341797 C11.22818604 56.49479004 11.1157959 57.23616211 11 58 C8 60 8 60 1 60 C0.67 40.2 0.34 20.4 0 0 Z " fill="#141415" transform="translate(581,339)"/>
<path d="M0 0 C3.5625 0.125 3.5625 0.125 5.5625 1.125 C5.5625 1.785 5.5625 2.445 5.5625 3.125 C6.160625 2.63 6.75875 2.135 7.375 1.625 C12.06553812 -0.58231205 16.4587696 -0.4604279 21.5625 0.125 C25 1.625 25 1.625 27.5625 3.125 C31.44838856 3.51711447 31.44838856 3.51711447 33.625 1.625 C38.16508237 -0.69333993 42.56241913 -0.41177339 47.5625 0.125 C52.94092846 1.98300256 56.02331756 5.04663513 58.5625 10.125 C58.64777628 12.15732634 58.66966135 14.19247006 58.66015625 16.2265625 C58.65693359 17.43828125 58.65371094 18.65 58.65039062 19.8984375 C58.63782227 21.80496094 58.63782227 21.80496094 58.625 23.75 C58.62048828 25.02875 58.61597656 26.3075 58.61132812 27.625 C58.59951203 30.79171292 58.58303815 33.95833356 58.5625 37.125 C57.10507537 37.20596803 55.64637193 37.26417774 54.1875 37.3125 C53.37539063 37.34730469 52.56328125 37.38210938 51.7265625 37.41796875 C51.01242187 37.32128906 50.29828125 37.22460938 49.5625 37.125 C47.37085056 33.83752584 47.27570614 32.64005175 47.1484375 28.80078125 C47.09042969 27.25874023 47.09042969 27.25874023 47.03125 25.68554688 C47.0003125 24.61369141 46.969375 23.54183594 46.9375 22.4375 C46.87949219 20.81231445 46.87949219 20.81231445 46.8203125 19.15429688 C46.72599491 16.47803533 46.64039995 13.80178157 46.5625 11.125 C43.50556678 9.59653339 40.93265453 9.89257555 37.5625 10.125 C35.28627087 11.20250496 35.28627087 11.20250496 33.5625 13.125 C32.92086328 15.72405411 32.92086328 15.72405411 32.953125 18.66796875 C32.92089844 19.74111328 32.88867188 20.81425781 32.85546875 21.91992188 C32.84128906 23.03947266 32.82710937 24.15902344 32.8125 25.3125 C32.76802734 27.00922852 32.76802734 27.00922852 32.72265625 28.74023438 C32.65189691 31.53522833 32.59923024 34.32938528 32.5625 37.125 C31.10457116 37.17899736 29.64607288 37.21779177 28.1875 37.25 C27.37539063 37.27320313 26.56328125 37.29640625 25.7265625 37.3203125 C23.5625 37.125 23.5625 37.125 21.5625 35.125 C21.24365234 32.60302734 21.24365234 32.60302734 21.1484375 29.4609375 C21.10976563 28.33945312 21.07109375 27.21796875 21.03125 26.0625 C21.0003125 24.886875 20.969375 23.71125 20.9375 22.5 C20.89882813 21.31664062 20.86015625 20.13328125 20.8203125 18.9140625 C20.72581155 15.98453309 20.64025442 13.05501403 20.5625 10.125 C19.14680936 10.04332554 17.72973195 9.98550302 16.3125 9.9375 C15.52359375 9.90269531 14.7346875 9.86789062 13.921875 9.83203125 C10.90778677 10.20629717 9.65212175 10.92316216 7.5625 13.125 C6.92086328 15.72405411 6.92086328 15.72405411 6.953125 18.66796875 C6.92089844 19.74111328 6.88867188 20.81425781 6.85546875 21.91992188 C6.83419922 23.59924805 6.83419922 23.59924805 6.8125 25.3125 C6.78285156 26.44365234 6.75320313 27.57480469 6.72265625 28.74023438 C6.6519085 31.53477066 6.60494661 34.3298906 6.5625 37.125 C2.9325 37.125 -0.6975 37.125 -4.4375 37.125 C-4.4621501 32.01636104 -4.48033607 26.90775641 -4.49243164 21.79907227 C-4.49747204 20.05980832 -4.5043043 18.32054864 -4.51293945 16.58129883 C-4.52501792 14.08674063 -4.53073108 11.59223827 -4.53515625 9.09765625 C-4.54031754 8.31536148 -4.54547882 7.53306671 -4.55079651 6.72706604 C-4.55099226 4.85932886 -4.49949694 2.99170796 -4.4375 1.125 C-3.4375 0.125 -3.4375 0.125 0 0 Z " fill="#161718" transform="translate(513.4375,338.875)"/>
<path d="M0 0 C0.79100098 0.00354492 1.58200195 0.00708984 2.39697266 0.01074219 C10.32342505 0.23512176 15.86317649 2.57142929 21.8125 7.8125 C22.493125 8.6478125 22.493125 8.6478125 23.1875 9.5 C21.69652342 13.2952131 19.43049151 15.11042731 16.1875 17.5 C13.63976097 16.27708527 11.46422407 14.99813507 9.125 13.375 C4.32815776 10.66329475 -0.45963649 10.51651456 -5.8125 11.5 C-11.07315155 13.76600364 -15.70242861 17.20361859 -18.22265625 22.453125 C-19.88695424 28.22856969 -19.68729271 34.27838484 -17.3125 39.8125 C-14.70431362 44.20475831 -11.50668349 47.4120028 -6.8125 49.5 C-0.09389523 50.67394976 5.63086432 50.04452052 11.46875 46.47265625 C13.43277382 45.36119731 14.93740762 44.74804168 17.1875 44.5 C19.52120072 45.86489377 21.19344554 47.6419038 23.1875 49.5 C20.86860261 55.40264791 15.74326673 58.01763614 10.1875 60.5 C3.3128881 62.65205242 -5.05460124 62.64375455 -11.6875 59.8125 C-13.08125867 59.07612659 -14.45800067 58.30631296 -15.8125 57.5 C-16.43769531 57.16097656 -17.06289062 56.82195312 -17.70703125 56.47265625 C-24.1368674 52.53630776 -28.08726539 45.70036029 -30.1875 38.5625 C-30.44113376 37.21608251 -30.64658316 35.86001535 -30.8125 34.5 C-30.91820312 33.66855469 -31.02390625 32.83710938 -31.1328125 31.98046875 C-31.65590182 24.03178538 -29.25510055 18.03644917 -24.8125 11.5 C-17.84268119 3.64632736 -10.49066776 -0.08451248 0 0 Z " fill="#161718" transform="translate(206.8125,315.5)"/>
<path d="M0 0 C0.60714844 0.34675781 1.21429688 0.69351562 1.83984375 1.05078125 C4.78751616 2.8471275 5.88117932 3.64353795 7 7 C3.535 9.97 3.535 9.97 0 13 C-4 11 -4 11 -7.0625 8.875 C-11.81188348 6.14205735 -16.67936694 6.34800109 -22 7 C-27.20560436 8.73520145 -29.82045575 11.58396632 -33 16 C-35.75544077 21.82881701 -36.18134946 28.15582499 -34.27734375 34.3515625 C-32.30244563 38.62118031 -30.02175683 41.42195075 -26 44 C-20.72940407 45.75686531 -14.06954768 46.21675764 -8.83203125 44.140625 C-7.19153846 43.14111946 -5.59334552 42.07306943 -4 41 C-1.375 39.9375 -1.375 39.9375 1 40 C3.875 42.1875 3.875 42.1875 6 45 C5.82421875 47.015625 5.82421875 47.015625 5 49 C-2.48083641 55.25947536 -9.2692783 57.57630481 -19.04296875 57.28125 C-26.92804914 56.53128198 -33.31673995 53.53968296 -39 48 C-46.07935588 39.09978983 -47.97003026 31.12315019 -47.23828125 19.93261719 C-46.26876257 12.06918496 -40.99644629 5.80738551 -35 1 C-24.74795238 -6.04962604 -10.63973285 -6.50822907 0 0 Z " fill="#161618" transform="translate(452,320)"/>
<path d="M0 0 C4.80162155 2.369082 7.93945855 6.43514902 9.7109375 11.375 C10.65563766 17.52707175 10.76332837 23.40106606 7.6484375 28.9375 C4.27336474 33.49529056 0.04926815 35.59555645 -5.2890625 37.375 C-11.72574878 38.14943365 -17.03495339 37.31272012 -22.2890625 33.375 C-27.58998418 27.58739321 -28.76491608 22.21870178 -28.69921875 14.45703125 C-28.04391733 9.53290916 -25.78453497 6.75666638 -22.2890625 3.375 C-21.4640625 2.55 -20.6390625 1.725 -19.7890625 0.875 C-13.62236896 -1.76786866 -6.47502908 -1.76792603 0 0 Z " fill="#151517" transform="translate(265.2890625,339.625)"/>
<path d="M0 0 C3.61125291 2.95466147 4.59302554 4.71583305 5.06884766 9.36621094 C5.10026855 10.56020508 5.13168945 11.75419922 5.1640625 12.984375 C5.22207031 14.92763672 5.22207031 14.92763672 5.28125 16.91015625 C5.31270267 18.27343284 5.34395007 19.63671418 5.375 21 C5.41320469 22.37893028 5.45225787 23.75783734 5.4921875 25.13671875 C5.58648004 28.50767718 5.6720822 31.87862978 5.75 35.25 C4.29207116 35.30399736 2.83357288 35.34279177 1.375 35.375 C0.56289063 35.39820313 -0.24921875 35.42140625 -1.0859375 35.4453125 C-3.25 35.25 -3.25 35.25 -5.25 33.25 C-5.848125 33.745 -6.44625 34.24 -7.0625 34.75 C-11.75437162 36.95793959 -16.14623018 36.82561314 -21.25 36.25 C-24.99030185 34.64701349 -25.98158465 33.65262302 -28.25 30.25 C-29.05412858 26.11549819 -29.40064589 21.98316037 -27 18.3671875 C-20.95374165 12.79679208 -13.20769208 11.09656299 -5.25 10.25 C-5.58 9.59 -5.91 8.93 -6.25 8.25 C-7.83294782 8.19562393 -9.41644256 8.15703729 -11 8.125 C-12.32257813 8.09019531 -12.32257813 8.09019531 -13.671875 8.0546875 C-16.40352576 8.26163074 -17.85103355 9.01150919 -20.25 10.25 C-21.57 10.25 -22.89 10.25 -24.25 10.25 C-25.40015519 7.81437725 -26.23280339 5.83468481 -26.3125 3.125 C-24.92648641 0.67909366 -23.27525306 -0.23290206 -20.67578125 -1.20703125 C-14.10038504 -2.67881881 -6.10257203 -3.24359396 0 0 Z " fill="#151516" transform="translate(494.25,340.75)"/>
<path d="M0 0 C4.07166495 2.90833211 7.01178079 6.03534238 8.625 10.875 C8.85688622 13.59831488 8.75593368 16.12539269 8.625 18.875 C6.625 20.875 6.625 20.875 4.28662109 21.10205078 C3.33352051 21.09157715 2.38041992 21.08110352 1.3984375 21.0703125 C-0.1484375 21.06064453 -0.1484375 21.06064453 -1.7265625 21.05078125 C-2.80679687 21.03402344 -3.88703125 21.01726562 -5 21 C-6.08796875 20.99097656 -7.1759375 20.98195313 -8.296875 20.97265625 C-10.98980152 20.94903409 -13.68229255 20.91609556 -16.375 20.875 C-15.21135705 23.41486157 -15.21135705 23.41486157 -13.375 25.875 C-8.15962635 27.63408366 -3.30218112 27.19367347 1.625 24.875 C3.9375 25.25 3.9375 25.25 5.625 25.875 C6.12 28.35 6.12 28.35 6.625 30.875 C0.93050601 35.75599485 -3.35571653 37.37923046 -10.81640625 37.1796875 C-15.9370717 36.56989833 -19.63334571 34.72669345 -23.16796875 30.96875 C-27.20278669 25.83178465 -28.80971886 21.75172703 -28.72265625 15.09765625 C-27.86616853 9.62190893 -24.70316007 5.17076592 -20.8125 1.375 C-14.75237718 -2.35430635 -6.59879408 -2.19959803 0 0 Z " fill="#161617" transform="translate(354.375,340.125)"/>
<path d="M0 0 C4.11220072 3.79165056 5.85128388 7.1856633 6.3125 12.8125 C6.21764191 18.00123771 4.03139916 20.94345977 0.421875 24.59765625 C-11.62696884 35.64242977 -29.15684081 35.63657741 -44.61376953 35.13183594 C-63.97417159 34.06220046 -82.84297717 27.74796349 -100 19 C-101.12664062 18.43667969 -102.25328125 17.87335938 -103.4140625 17.29296875 C-104.26742188 16.86628906 -105.12078125 16.43960938 -106 16 C-106.33 18.31 -106.66 20.62 -107 23 C-107.33 23 -107.66 23 -108 23 C-108 20.03 -108 17.06 -108 14 C-107.34 14 -106.68 14 -106 14 C-105.67 13.34 -105.34 12.68 -105 12 C-103.96875 12.70125 -102.9375 13.4025 -101.875 14.125 C-78.053728 28.83204619 -44.51726842 35.51429303 -17.02368164 29.86987305 C-8.91678998 27.88740599 -3.4349687 24.85132854 2.0625 18.6875 C3.48351491 14.61392391 3.2082003 11.11988798 2 7 C-1.39578603 2.36938269 -5.87018977 0.26470062 -11 -2 C-11.804375 -2.37125 -12.60875 -2.7425 -13.4375 -3.125 C-20.77069233 -5.62901689 -27.84279648 -6.35756461 -35.5625 -6.3125 C-36.51979004 -6.30976074 -37.47708008 -6.30702148 -38.46337891 -6.30419922 C-46.92190286 -6.18128431 -54.78457807 -4.99438973 -63 -3 C-63.64259766 -2.8453125 -64.28519531 -2.690625 -64.94726562 -2.53125 C-76.06007745 0.18497559 -86.6359836 3.3971192 -96.7421875 8.86328125 C-99 10 -99 10 -101 10 C-100 7 -100 7 -96.6875 5.125 C-95.13072577 4.40416968 -93.56759524 3.69698459 -92 3 C-91.1646875 2.60683594 -90.329375 2.21367187 -89.46875 1.80859375 C-80.29749459 -2.30043782 -70.74635116 -4.69441155 -61 -7 C-59.99582031 -7.25007812 -58.99164063 -7.50015625 -57.95703125 -7.7578125 C-39.4436006 -11.64098407 -15.86114549 -11.22481065 0 0 Z " fill="#25272C" transform="translate(481,177)"/>
<path d="M0 0 C1.258125 -0.04125 2.51625 -0.0825 3.8125 -0.125 C4.52019531 -0.14820313 5.22789062 -0.17140625 5.95703125 -0.1953125 C8 0 8 0 11 2 C11.99 1.34 12.98 0.68 14 0 C16.84765625 -0.23046875 16.84765625 -0.23046875 20.0625 -0.1875 C21.65771484 -0.17783203 21.65771484 -0.17783203 23.28515625 -0.16796875 C26 0 26 0 28 1 C27.46872068 4.82521111 26.67034259 7.17639271 24 10 C21.625 10.57421875 21.625 10.57421875 19 10.6875 C16.00609447 10.84343258 13.87193332 11.04268889 11 12 C10.97494385 12.7520874 10.9498877 13.5041748 10.92407227 14.27905273 C10.80849486 17.66539196 10.68559655 21.05142613 10.5625 24.4375 C10.52318359 25.62150391 10.48386719 26.80550781 10.44335938 28.02539062 C10.40146484 29.15009766 10.35957031 30.27480469 10.31640625 31.43359375 C10.27974854 32.47572021 10.24309082 33.51784668 10.20532227 34.59155273 C10 37 10 37 9 38 C7.1875 38.1328125 7.1875 38.1328125 5 38.125 C4.278125 38.12757813 3.55625 38.13015625 2.8125 38.1328125 C1 38 1 38 0 37 C-0.08858646 34.26105915 -0.11523479 31.5474673 -0.09765625 28.80859375 C-0.0962413 27.98875504 -0.09482635 27.16891632 -0.09336853 26.32423401 C-0.08775289 23.69528618 -0.07519779 21.06642227 -0.0625 18.4375 C-0.05748701 16.65950643 -0.05292376 14.88151154 -0.04882812 13.10351562 C-0.03777839 8.73564455 -0.02050331 4.36783652 0 0 Z " fill="#141516" transform="translate(371,339)"/>
<path d="M0 0 C0.969375 0.50789062 1.93875 1.01578125 2.9375 1.5390625 C31.06793286 16.07400576 63.66307091 25.12330535 95.05078125 15.97265625 C97.03490731 15.31828885 99.01796629 14.6606779 101 14 C101 14.99 101 15.98 101 17 C75.93546098 28.48791372 45.98739222 23.105619 21 14 C15.87271708 11.92119084 10.92828258 9.51281569 6 7 C4.87335938 6.43667969 3.74671875 5.87335938 2.5859375 5.29296875 C1.73257812 4.86628906 0.87921875 4.43960938 0 4 C-0.33 6.31 -0.66 8.62 -1 11 C-1.33 11 -1.66 11 -2 11 C-2 8.03 -2 5.06 -2 2 C-1.34 2 -0.68 2 0 2 C0 1.34 0 0.68 0 0 Z " fill="#32353D" transform="translate(375,189)"/>
<path d="M0 0 C4.15123962 0.15966306 6.51251483 0.65772318 9.9375 3.0625 C12.25361564 6.36121015 12.76063594 8.11537428 12.4765625 12.0625 C11.60276841 15.61497432 9.9838283 17.01078114 7 19 C3.97719254 19.67639058 2.18911887 19.45558841 -1 19 C-3.43119623 17.12984906 -4.64069173 15.71861655 -6 13 C-6.375 9.6875 -6.375 9.6875 -6 6 C-3.5625 3.125 -3.5625 3.125 -1 1 C-0.67 0.67 -0.34 0.34 0 0 Z " fill="#BECDF7" transform="translate(253,348)"/>
<path d="M0 0 C1.32 0.66 2.64 1.32 4 2 C4 6.95 4 11.9 4 17 C0.31123973 18.84438013 -3.97330313 18.48788734 -8 18 C-10.57637471 16.11484777 -11.59667428 14.80665143 -13 12 C-13.69064748 4.86330935 -13.69064748 4.86330935 -11 1.5 C-6.91090338 -0.54454831 -4.55668737 -0.43397023 0 0 Z " fill="#BDCBF5" transform="translate(305,349)"/>
<path d="M0 0 C1.45212891 -0.03867187 1.45212891 -0.03867187 2.93359375 -0.078125 C5.5625 0.25 5.5625 0.25 7.3828125 1.4609375 C9.73103129 5.02214349 9.11442659 9.1722365 8.5625 13.25 C7.1875 16.375 7.1875 16.375 4.5625 18.25 C0.50407461 18.79985118 -3.71132836 19.11308582 -7.4375 17.25 C-7.4375 11.97 -7.4375 6.69 -7.4375 1.25 C-4.85741408 -0.04004296 -2.88008426 0.04589776 0 0 Z " fill="#C0CDF5" transform="translate(599.4375,348.75)"/>
<path d="M0 0 C4.72856316 14.45980907 -6.49826656 37.98913853 -12.89550781 50.89111328 C-15.85374204 56.53948358 -19.30471749 61.81132324 -23 67 C-23.50015625 67.70511719 -24.0003125 68.41023438 -24.515625 69.13671875 C-29.87336255 75.98784866 -37.59752587 81.72906104 -46 84 C-52.36363636 84.31818182 -52.36363636 84.31818182 -55 83 C-55 82.34 -55 81.68 -55 81 C-53.62328125 80.88785156 -53.62328125 80.88785156 -52.21875 80.7734375 C-44.08335316 79.90178784 -38.88185365 78.73480731 -33 73 C-32.4328125 72.51917969 -31.865625 72.03835938 -31.28125 71.54296875 C-25.20425084 66.08748086 -21.13307709 58.9577236 -17 52 C-16.27103516 50.78183594 -16.27103516 50.78183594 -15.52734375 49.5390625 C-8.22929667 36.16322059 -4.03463703 19.253826 -2.4375 4.1875 C-2.293125 3.135625 -2.14875 2.08375 -2 1 C-1.34 0.67 -0.68 0.34 0 0 Z " fill="#25262B" transform="translate(372,207)"/>
<path d="M0 0 C4.46149465 4.38940586 8.62718188 9.00019797 12.79296875 13.671875 C14.77817757 16.03135419 14.77817757 16.03135419 17 17 C17 17.66 17 18.32 17 19 C17.8971875 19.433125 17.8971875 19.433125 18.8125 19.875 C21 21 21 21 24 23 C24 23.66 24 24.32 24 25 C24.55171875 25.268125 25.1034375 25.53625 25.671875 25.8125 C28.25088039 27.12796584 30.75082068 28.53849162 33.25 30 C34.14203125 30.515625 35.0340625 31.03125 35.953125 31.5625 C36.62859375 32.036875 37.3040625 32.51125 38 33 C38 33.66 38 34.32 38 35 C38.99 35.33 39.98 35.66 41 36 C40.34 36.66 39.68 37.32 39 38 C38.01 37.505 38.01 37.505 37 37 C37 36.34 37 35.68 37 35 C36.27425781 34.731875 35.54851562 34.46375 34.80078125 34.1875 C32.03135976 33.01329619 29.69080566 31.6605676 27.1875 30 C26.39730469 29.484375 25.60710937 28.96875 24.79296875 28.4375 C24.20128906 27.963125 23.60960937 27.48875 23 27 C23 26.34 23 25.68 23 25 C22.41734375 24.73445313 21.8346875 24.46890625 21.234375 24.1953125 C13.42721956 20.01875732 4.71856702 11.47711389 0 4 C0 2.68 0 1.36 0 0 Z " fill="#2D3036" transform="translate(329,151)"/>
<path d="M0 0 C8.98864364 1.13089226 18.02403006 4.13709958 24.125 11.1875 C27.07830072 15.61745108 27.70680066 19.76370215 27 25 C24.52739072 29.85011821 21.22836759 32.73262505 17 36 C16.67 35.01 16.34 34.02 16 33 C17.49739583 31.828125 18.99479167 30.65625 20.4921875 29.484375 C22.8443465 27.16877805 23.92161239 25.12355573 24.15234375 21.81640625 C23.76959862 17.80106193 23.36901536 15.50320276 20.9375 12.1875 C17.46020689 9.59802641 13.95578785 7.74377587 10 6 C9.13375 5.608125 8.2675 5.21625 7.375 4.8125 C4.60778091 3.86581979 1.89232215 3.40357984 -1 3 C-0.67 2.01 -0.34 1.02 0 0 Z " fill="#1F2024" transform="translate(460,169)"/>
<path d="M0 0 C0.99257813 0.51949219 1.98515625 1.03898438 3.0078125 1.57421875 C11.82618921 6.12310416 20.55762226 9.93122723 30 13 C29.67 13.99 29.34 14.98 29 16 C18.71827908 13.35413954 9.44916305 8.75287243 0 4 C-0.33 6.31 -0.66 8.62 -1 11 C-1.33 11 -1.66 11 -2 11 C-2 8.03 -2 5.06 -2 2 C-1.34 2 -0.68 2 0 2 C0 1.34 0 0.68 0 0 Z " fill="#2C2E34" transform="translate(375,189)"/>
<path d="M0 0 C3.40536596 10.4135104 -3.034619 24.91544093 -6 35 C-6.99 34.67 -7.98 34.34 -9 34 C-8.74605469 32.9584375 -8.49210937 31.916875 -8.23046875 30.84375 C-7.88181537 29.39607312 -7.5342412 27.94813607 -7.1875 26.5 C-7.00590332 25.74203125 -6.82430664 24.9840625 -6.63720703 24.203125 C-5.21139854 18.14375242 -4.02834346 12.06186437 -3.03979492 5.91601562 C-2.75646032 4.26522872 -2.38622557 2.62978701 -2 1 C-1.34 0.67 -0.68 0.34 0 0 Z " fill="#383B44" transform="translate(372,207)"/>
<path d="M0 0 C0 1.98 0 3.96 0 6 C-3.85756507 8.15305957 -6.55129785 9.39253254 -11 9 C-11.66 7.68 -12.32 6.36 -13 5 C-9.8245716 0.89062207 -4.9889919 0 0 0 Z " fill="#B7C4EB" transform="translate(489,360)"/>
<path d="M0 0 C1.05380859 -0.00773438 2.10761719 -0.01546875 3.19335938 -0.0234375 C8.44796192 -0.01019339 12.90863256 0.11567428 17.8125 2.25 C17.8125 2.58 17.8125 2.91 17.8125 3.25 C17.02713867 3.24476318 16.24177734 3.23952637 15.43261719 3.23413086 C11.80925322 3.21310193 8.18590217 3.20025846 4.5625 3.1875 C2.71011719 3.17493164 2.71011719 3.17493164 0.8203125 3.16210938 C-6.90441504 3.14178114 -14.50251847 3.45994685 -22.1875 4.25 C-21.8575 3.59 -21.5275 2.93 -21.1875 2.25 C-14.08870571 0.17799838 -7.35940467 -0.05461525 0 0 Z " fill="#1C1D1F" transform="translate(444.1875,167.75)"/>
<path d="M0 0 C0.98484375 0.02707031 1.9696875 0.05414063 2.984375 0.08203125 C3.73203125 0.11683594 4.4796875 0.15164062 5.25 0.1875 C5.25 0.5175 5.25 0.8475 5.25 1.1875 C4.57453125 1.28546875 3.8990625 1.3834375 3.203125 1.484375 C-2.32122711 2.38482499 -2.32122711 2.38482499 -7.25 4.875 C-11.56163223 11.52209969 -10.97638636 18.52809499 -10.75 26.1875 C-11.41 26.1875 -12.07 26.1875 -12.75 26.1875 C-15.24909705 21.18930589 -14.6557897 13.04097222 -12.99609375 7.8125 C-9.81590322 2.02580038 -6.51804897 -0.23278746 0 0 Z " fill="#19191B" transform="translate(321.75,89.8125)"/>
<path d="M0 0 C0 0.99 0 1.98 0 3 C-1.32 3.33 -2.64 3.66 -4 4 C-4 4.66 -4 5.32 -4 6 C-4.66 6 -5.32 6 -6 6 C-5.97679687 7.12019531 -5.95359375 8.24039063 -5.9296875 9.39453125 C-5.91092763 10.86718084 -5.89272766 12.33983763 -5.875 13.8125 C-5.85824219 14.55048828 -5.84148437 15.28847656 -5.82421875 16.04882812 C-5.78925372 19.91246426 -5.80602445 21.70903668 -8 25 C-8 19.39 -8 13.78 -8 8 C-8.99 7.67 -9.98 7.34 -11 7 C-10.67 5.35 -10.34 3.7 -10 2 C-9.0925 2.04125 -8.185 2.0825 -7.25 2.125 C-4.1217954 2.00468444 -2.61385994 1.6085292 0 0 Z " fill="#191A1C" transform="translate(379,185)"/>
<path d="M0 0 C1.50154168 4.58162717 -0.24639167 7.63313555 -2.1875 11.8125 C-2.64479492 12.84213867 -2.64479492 12.84213867 -3.11132812 13.89257812 C-5.15701312 18.42567885 -7.47471889 22.71654091 -10 27 C-10.66 26.67 -11.32 26.34 -12 26 C-10.57220531 22.26314022 -8.89368645 18.74270424 -7.0625 15.1875 C-4.70449761 10.52900747 -2.75980187 5.908921 -1 1 C-0.67 0.67 -0.34 0.34 0 0 Z " fill="#212226" transform="translate(364,240)"/>
<path d="M0 0 C2.375 1.375 2.375 1.375 4 3 C4 3.66 4 4.32 4 5 C-0.62 5 -5.24 5 -10 5 C-7.3091163 -0.3817674 -5.79447792 -0.46355823 0 0 Z " fill="#BDCCF5" transform="translate(348,348)"/>
<path d="M0 0 C0.99 0.495 0.99 0.495 2 1 C2 1.66 2 2.32 2 3 C2.55171875 3.268125 3.1034375 3.53625 3.671875 3.8125 C6.25088039 5.12796584 8.75082068 6.53849162 11.25 8 C12.14203125 8.515625 13.0340625 9.03125 13.953125 9.5625 C14.96632813 10.2740625 14.96632813 10.2740625 16 11 C16 11.66 16 12.32 16 13 C16.99 13.33 17.98 13.66 19 14 C18.34 14.66 17.68 15.32 17 16 C16.34 15.67 15.68 15.34 15 15 C15 14.34 15 13.68 15 13 C13.90945313 12.59201172 13.90945313 12.59201172 12.796875 12.17578125 C10.08816429 11.03706348 7.72693289 9.76259658 5.25 8.1875 C4.47140625 7.70667969 3.6928125 7.22585937 2.890625 6.73046875 C0.54964174 4.58779192 0.31592494 3.10132978 0 0 Z " fill="#2E3037" transform="translate(351,173)"/>
<path d="M0 0 C8.01952421 1.008964 14.11603868 3.8382135 21 8 C20.01 8.66 19.02 9.32 18 10 C17.22076172 9.60167969 17.22076172 9.60167969 16.42578125 9.1953125 C10.62910262 6.25947157 5.50085343 3.90709583 -1 3 C-0.67 2.01 -0.34 1.02 0 0 Z " fill="#2D2F35" transform="translate(460,169)"/>
<path d="M0 0 C1.7421875 0.11328125 1.7421875 0.11328125 4 1 C5.55673208 3.05312401 6.84238011 4.97583414 8.125 7.1875 C8.80820312 8.31542969 9.49140625 9.44335938 10.1953125 10.60546875 C11.84539465 13.7091947 13.00974348 16.63619048 14 20 C13.01 20 12.02 20 11 20 C10.45730469 18.97519531 9.91460937 17.95039062 9.35546875 16.89453125 C8.63288255 15.53381697 7.91022238 14.17314196 7.1875 12.8125 C6.83107422 12.13896484 6.47464844 11.46542969 6.10742188 10.77148438 C4.16503568 7.11837273 2.16988955 3.52521488 0 0 Z " fill="#222327" transform="translate(347,107)"/>
<path d="M0 0 C0.66 0 1.32 0 2 0 C0.58833777 3.86275735 -1.22104454 7.16446954 -3.4375 10.625 C-4.03433594 11.56601563 -4.63117188 12.50703125 -5.24609375 13.4765625 C-6.70939499 15.58189124 -8.11413001 17.28137842 -10 19 C-10 11.92623883 -4.75195404 5.09137933 0 0 Z " fill="#27282E" transform="translate(327,227)"/>
<path d="M0 0 C0.66 0 1.32 0 2 0 C2 0.99 2 1.98 2 3 C-10.87537556 8.9012138 -10.87537556 8.9012138 -17 7 C-17 6.34 -17 5.68 -17 5 C-15.85660156 4.72285156 -14.71320313 4.44570312 -13.53515625 4.16015625 C-12.04422535 3.79445622 -10.55334239 3.42856071 -9.0625 3.0625 C-8.30775391 2.88009766 -7.55300781 2.69769531 -6.77539062 2.50976562 C-3.08720179 1.86160821 -3.08720179 1.86160821 0 0 Z " fill="#2E3137" transform="translate(474,203)"/>
<path d="M0 0 C0 0.99 0 1.98 0 3 C-4.14470514 4.32630565 -9.03230578 4.98384711 -13 3 C-13 2.34 -13 1.68 -13 1 C-11.39602723 0.83147753 -9.7918131 0.66525114 -8.1875 0.5 C-7.29417969 0.4071875 -6.40085937 0.314375 -5.48046875 0.21875 C-3 0 -3 0 0 0 Z " fill="#33363E" transform="translate(330,287)"/>
<path d="M0 0 C5.50808397 0.59015185 10.64878069 1.56663769 16 3 C15.34 3.66 14.68 4.32 14 5 C9.32391853 4.69337171 5.21510697 4.17141874 1 2 C0.67 1.34 0.34 0.68 0 0 Z " fill="#2B2D33" transform="translate(403,203)"/>
<path d="M0 0 C5.28 0.33 10.56 0.66 16 1 C13 4 13 4 10.9140625 4.109375 C10.15867187 3.99078125 9.40328125 3.8721875 8.625 3.75 C7.83480469 3.63269531 7.04460937 3.51539063 6.23046875 3.39453125 C1.36258661 2.5334873 1.36258661 2.5334873 -1 2 C-0.67 1.34 -0.34 0.68 0 0 Z " fill="#3E424C" transform="translate(417,207)"/>
<path d="M0 0 C0.66 0 1.32 0 2 0 C1.37183502 3.94949704 0.1354471 7.19892028 -1.5625 10.8125 C-2.01753906 11.78832031 -2.47257812 12.76414062 -2.94140625 13.76953125 C-3.29074219 14.50558594 -3.64007813 15.24164063 -4 16 C-5.24901513 12.25295461 -4.52427258 11.06113346 -3.125 7.4375 C-2.75632812 6.46683594 -2.38765625 5.49617187 -2.0078125 4.49609375 C-1 2 -1 2 0 0 Z " fill="#1B1B1E" transform="translate(315,245)"/>
<path d="M0 0 C1.09404518 3.33644983 0.89669485 5.7065788 0.1875 9.125 C0.01605469 9.99382812 -0.15539062 10.86265625 -0.33203125 11.7578125 C-1 14 -1 14 -3 16 C-2.88658509 13.51979503 -2.75985314 11.04155031 -2.625 8.5625 C-2.5940625 7.85544922 -2.563125 7.14839844 -2.53125 6.41992188 C-2.42719371 4.60760812 -2.22080108 2.80182012 -2 1 C-1.34 0.67 -0.68 0.34 0 0 Z " fill="#2A2C32" transform="translate(372,207)"/>
<path d="M0 0 C2 1 4 2 6 3 C6 3.66 6 4.32 6 5 C6.639375 5.2475 7.27875 5.495 7.9375 5.75 C10 7 10 7 10.75 9.125 C10.87375 10.053125 10.87375 10.053125 11 11 C6.11538324 8.3483509 1.80679594 5.42038781 0 0 Z " fill="#212226" transform="translate(340,165)"/>
<path d="M0 0 C0.66 0 1.32 0 2 0 C2.33872513 1.41538717 2.67074624 2.83237963 3 4.25 C3.185625 5.03890625 3.37125 5.8278125 3.5625 6.640625 C4 9 4 9 4 13 C3.34 13 2.68 13 2 13 C1.66127487 11.58461283 1.32925376 10.16762037 1 8.75 C0.814375 7.96109375 0.62875 7.1721875 0.4375 6.359375 C0 4 0 4 0 0 Z " fill="#232428" transform="translate(369,160)"/>
<path d="M0 0 C0.66 0 1.32 0 2 0 C2.99 3.3 3.98 6.6 5 10 C4.01 10 3.02 10 2 10 C0.68373308 6.38026598 0 3.90432869 0 0 Z " fill="#2B2D33" transform="translate(309,116)"/>
<path d="M0 0 C3.3 0.66 6.6 1.32 10 2 C9.67 2.99 9.34 3.98 9 5 C5.7 4.34 2.4 3.68 -1 3 C-0.67 2.01 -0.34 1.02 0 0 Z " fill="#3E424C" transform="translate(460,169)"/>
<path d="M0 0 C0.99 0.33 1.98 0.66 3 1 C2.67 2.65 2.34 4.3 2 6 C0.68 5.34 -0.64 4.68 -2 4 C-1.34 2.68 -0.68 1.36 0 0 Z " fill="#6A7188" transform="translate(222,411)"/>
<path d="M0 0 C0 1.65 0 3.3 0 5 C-1.65 5.33 -3.3 5.66 -5 6 C-5 4.35 -5 2.7 -5 1 C-2 0 -2 0 0 0 Z " fill="#666D82" transform="translate(307,411)"/>
<path d="M0 0 C0 1.65 0 3.3 0 5 C-1.65 5.33 -3.3 5.66 -5 6 C-5 4.35 -5 2.7 -5 1 C-2 0 -2 0 0 0 Z " fill="#666D83" transform="translate(238,411)"/>
<path d="M0 0 C0.95465783 2.16967689 1.14401212 3.56328793 0.3984375 5.82421875 C-0.35870385 7.5684743 -1.17609198 9.28627131 -2 11 C-2.66 11 -3.32 11 -4 11 C-2.25 3.375 -2.25 3.375 0 0 Z " fill="#1A1B1D" transform="translate(364,240)"/>
<path d="M0 0 C0.99 0.33 1.98 0.66 3 1 C2.67 2.65 2.34 4.3 2 6 C0.68 5.34 -0.64 4.68 -2 4 C-1.34 2.68 -0.68 1.36 0 0 Z " fill="#676D82" transform="translate(455,411)"/>
<path d="M0 0 C1.32 0.99 2.64 1.98 4 3 C3.34 3.66 2.68 4.32 2 5 C1.34 4.67 0.68 4.34 0 4 C-0.33 6.31 -0.66 8.62 -1 11 C-1.33 11 -1.66 11 -2 11 C-2 8.03 -2 5.06 -2 2 C-1.34 2 -0.68 2 0 2 C0 1.34 0 0.68 0 0 Z " fill="#4C515E" transform="translate(375,189)"/>
<path d="M0 0 C0 0.66 0 1.32 0 2 C-2.64 2.33 -5.28 2.66 -8 3 C-8 2.01 -8 1.02 -8 0 C-4.71303767 -0.79953138 -3.28976808 -1.09658936 0 0 Z " fill="#31343B" transform="translate(423,171)"/>
<path d="M0 0 C0.66 0 1.32 0 2 0 C1.67 2.64 1.34 5.28 1 8 C0.01 8 -0.98 8 -2 8 C-1.125 1.125 -1.125 1.125 0 0 Z " fill="#33363E" transform="translate(310,96)"/>
<path d="M0 0 C2.64 0.33 5.28 0.66 8 1 C7.67 1.99 7.34 2.98 7 4 C4.36 3.34 1.72 2.68 -1 2 C-0.67 1.34 -0.34 0.68 0 0 Z " fill="#3E424C" transform="translate(397,201)"/>
<path d="M0 0 C0.99 0.33 1.98 0.66 3 1 C3.6875 3.0625 3.6875 3.0625 4 5 C2.68 5.33 1.36 5.66 0 6 C0 4.02 0 2.04 0 0 Z " fill="#585E6E" transform="translate(498,411)"/>
<path d="M0 0 C0.66 0 1.32 0 2 0 C3.25664978 2.90600261 4 4.79604584 4 8 C3.01 7.67 2.02 7.34 1 7 C0.67 4.69 0.34 2.38 0 0 Z " fill="#232428" transform="translate(365,143)"/>
<path d="M0 0 C0.99 0 1.98 0 3 0 C3 1.98 3 3.96 3 6 C2.01 6 1.02 6 0 6 C0 4.02 0 2.04 0 0 Z " fill="#606679" transform="translate(560,411)"/>
<path d="M0 0 C1.32 0.33 2.64 0.66 4 1 C2.25 4.875 2.25 4.875 0 6 C0 4.02 0 2.04 0 0 Z " fill="#54596A" transform="translate(278,411)"/>
</svg>
